<svg width="29" height="36" viewBox="0 0 29 36" fill="none" xmlns="http://www.w3.org/2000/svg">
<path d="M12.3744 35.764C6.99291 35.6936 3.68466 33.695 1.74697 30.9413L5.67056 26.7637C7.36895 28.7412 9.54941 30.3158 12.6311 30.3562C16.1268 30.4019 18.7602 28.7085 19.2598 25.7138C19.8123 22.4016 18.175 20.3339 10.7696 20.237L11.5719 15.4274C17.8274 15.5093 20.1993 13.4487 20.6989 10.454C21.1378 7.82239 19.7469 6.21266 16.8491 6.17473C14.4113 6.14281 12.2443 7.25125 9.91014 9.08505L7.14916 4.91094C10.5092 2.45395 14.0398 0.908647 17.9955 0.96043C24.5729 1.04653 28.5047 4.28106 27.5435 10.0434C26.9456 13.6279 24.4753 16.2784 20.6145 17.5921L20.5767 17.8189C24.2587 18.9585 26.7408 21.7648 25.9991 26.2113C24.9698 32.3821 18.9059 35.8495 12.3744 35.764Z" fill="white"/>
</svg>
