<svg width="45" height="54" viewBox="0 0 45 54" fill="none" xmlns="http://www.w3.org/2000/svg">
<g filter="url(#filter0_b_34_7397)">
<path d="M17.2706 53.0339C9.08133 52.9267 4.15159 49.6791 0.865367 45.8303L6.76605 39.4722C9.1636 42.3407 12.4817 44.7368 17.2413 44.7991C22.7008 44.8706 26.9748 41.5359 27.9884 35.4598C28.9788 29.5219 26.032 26.1618 20.8524 26.094C17.7727 26.0537 15.9661 26.7912 12.6339 28.6851L8.38107 25.5848L13.9856 0.8165L41.7032 1.17934L40.2866 9.672L21.4582 9.42553L18.6701 20.2529C20.8497 19.3819 22.7501 18.9224 25.1299 18.9536C33.8092 19.0672 40.2478 24.2028 38.382 35.3883C36.4932 46.7118 26.7898 53.1585 17.2706 53.0339Z" fill="white"/>
</g>
<defs>
<filter id="filter0_b_34_7397" x="-4.29883" y="-3.25684" width="52.3828" height="60.5283" filterUnits="userSpaceOnUse" color-interpolation-filters="sRGB">
<feFlood flood-opacity="0" result="BackgroundImageFix"/>
<feGaussianBlur in="BackgroundImageFix" stdDeviation="2"/>
<feComposite in2="SourceAlpha" operator="in" result="effect1_backgroundBlur_34_7397"/>
<feBlend mode="normal" in="SourceGraphic" in2="effect1_backgroundBlur_34_7397" result="shape"/>
</filter>
</defs>
</svg>
