<svg width="45" height="55" viewBox="0 0 45 55" fill="none" xmlns="http://www.w3.org/2000/svg">
<g filter="url(#filter0_b_34_7121)">
<path d="M19.0004 54.0696C9.20123 53.9414 1.68343 46.0237 4.68941 28.0027C7.85664 9.01502 18.8048 0.993119 29.3039 1.13056C35.6034 1.21302 39.7969 3.8282 42.4053 7.1146L35.8738 13.0492C34.4579 11.024 31.5146 9.32472 28.5749 9.28624C22.2754 9.20377 16.5111 13.9029 14.1386 28.1264C11.9273 41.3832 15.0292 46.3368 20.1388 46.4037C23.9885 46.4541 27.668 43.3192 28.7045 37.1051C29.7181 31.029 27.239 28.2287 22.8294 28.1709C19.9596 28.1334 16.4165 29.6093 13.1242 33.7872L13.856 26.8771C17.2192 23.1153 22.4173 20.9691 25.917 21.0149C34.5963 21.1285 39.985 26.2504 38.1537 37.2287C36.4031 47.7237 27.8196 54.1851 19.0004 54.0696Z" fill="white"/>
</g>
<defs>
<filter id="filter0_b_34_7121" x="-3.61719" y="-3.13281" width="51.7598" height="61.416" filterUnits="userSpaceOnUse" color-interpolation-filters="sRGB">
<feFlood flood-opacity="0" result="BackgroundImageFix"/>
<feGaussianBlur in="BackgroundImageFix" stdDeviation="2"/>
<feComposite in2="SourceAlpha" operator="in" result="effect1_backgroundBlur_34_7121"/>
<feBlend mode="normal" in="SourceGraphic" in2="effect1_backgroundBlur_34_7121" result="shape"/>
</filter>
</defs>
</svg>
