<svg width="44" height="55" viewBox="0 0 44 55" fill="none" xmlns="http://www.w3.org/2000/svg">
<g filter="url(#filter0_b_34_7243)">
<path d="M17.5305 54.0504C7.59137 53.9203 1.17489 48.2313 2.51089 40.222C3.60502 33.6626 8.39025 29.3659 13.5645 26.9425L13.6105 26.6663C10.1631 23.7841 7.8798 19.81 8.77814 14.4244C10.1487 6.20795 17.6734 1.0475 26.7027 1.1657C35.8719 1.28573 40.853 6.74829 39.494 14.8957C38.6417 20.0051 34.6495 24.1739 30.8866 26.5465L30.8291 26.8917C35.1625 29.5087 38.4027 33.6338 37.2279 40.6765C35.938 48.4096 27.9596 54.1869 17.5305 54.0504ZM25.8417 23.9894C28.7992 21.3986 30.4728 18.5143 30.9795 15.4762C31.6821 11.2644 29.576 8.33059 25.3064 8.27469C21.7367 8.22796 18.5569 10.4698 17.8774 14.5435C17.0827 19.3077 20.7392 21.7775 25.8417 23.9894ZM18.9383 46.8723C23.4179 46.931 26.9707 44.5556 27.7078 40.1367C28.5947 34.8201 24.1221 32.6165 17.9334 29.7676C14.6951 31.9395 12.1594 35.3661 11.5259 39.1637C10.7543 43.7898 14.1087 46.8091 18.9383 46.8723Z" fill="white"/>
</g>
<defs>
<filter id="filter0_b_34_7243" x="-3.75781" y="-3.06543" width="51.5391" height="61.3438" filterUnits="userSpaceOnUse" color-interpolation-filters="sRGB">
<feFlood flood-opacity="0" result="BackgroundImageFix"/>
<feGaussianBlur in="BackgroundImageFix" stdDeviation="2"/>
<feComposite in2="SourceAlpha" operator="in" result="effect1_backgroundBlur_34_7243"/>
<feBlend mode="normal" in="SourceGraphic" in2="effect1_backgroundBlur_34_7243" result="shape"/>
</filter>
</defs>
</svg>
